# xmcd
#
# Track frame offsets: 
#        150
#        18140
#        38763
#        55459
#        73977
#        90297
#        109441
#        123876
#        144162
#        165464
#        183536
#        200142
#
# Disc length: 2894 seconds
#
# Revision: 0
# Processed by: cddbd v1.5.1PL0 Copyright (c) Steve Scherf et al.
# Submitted via: ExactAudioCopy v0.95a5
#
DISCID=a40b4c0c
DTITLE=Kirsche and Co - Kirsches Tabu
DYEAR=2003
DGENRE=Blues
TTITLE0=Tabu
TTITLE1=Am Horizont
TTITLE2=Wieder im Spiel
TTITLE3=Von Osten
TTITLE4=Hallo Hallo
TTITLE5=Zu den Sternen
TTITLE6=Wenn dir einer sagt
TTITLE7=Tief in mir
TTITLE8=Am Ende
TTITLE9=Der letzte Tanz
TTITLE10=Meine Tränen
TTITLE11=Deshalb lieb ich Dich
EXTD=
EXTT0=
EXTT1=
EXTT2=
EXTT3=
EXTT4=
EXTT5=
EXTT6=
EXTT7=
EXTT8=
EXTT9=
EXTT10=
EXTT11=
PLAYORDER=
